<?xml version="1.0" standalone="no"?><!DOCTYPE svg PUBLIC "-//W3C//DTD SVG 1.1//EN" "http://www.w3.org/Graphics/SVG/1.1/DTD/svg11.dtd"><svg t="1524067232953" class="icon" style="" viewBox="0 0 1024 1024" version="1.1" xmlns="http://www.w3.org/2000/svg" p-id="1910" xmlns:xlink="http://www.w3.org/1999/xlink" width="32" height="32"><defs><style type="text/css"></style></defs><path d="M1007.603202 929.818395L592.684241 514.699473 1007.603202 99.780512c10.797891-10.797891 16.196837-24.795157 16.196837-38.992385 0-13.997266-5.398946-28.194493-16.196837-38.992384-21.595782-21.595782-56.388987-21.595782-77.984768 0L514.699473 436.914665 99.780512 21.795743C78.18473 0.199961 43.391525 0.199961 21.795743 21.795743s-21.595782 56.388987 0 77.984769l415.118922 414.918961L21.795743 929.818395c-21.595782 21.595782-21.595782 56.388987 0 77.984768s56.388987 21.595782 77.984769 0l414.918961-415.118922L929.818395 1007.603202c10.797891 10.797891 24.795157 16.196837 38.992384 16.196837 13.997266 0 28.194493-5.398946 38.992384-16.196837 21.395821-21.395821 21.395821-56.388987-0.199961-77.784807z" fill="#666" p-id="1911"></path></svg>