<?xml version="1.0" standalone="no"?><!DOCTYPE svg PUBLIC "-//W3C//DTD SVG 1.1//EN" "http://www.w3.org/Graphics/SVG/1.1/DTD/svg11.dtd"><svg t="1523797483967" class="icon" style="" viewBox="0 0 1024 1024" version="1.1" xmlns="http://www.w3.org/2000/svg" p-id="7818" xmlns:xlink="http://www.w3.org/1999/xlink" width="200" height="200"><defs><style type="text/css"></style></defs><path d="M847 131.2c25.3 0 45.8 20.6 45.8 45.8v670c0 25.3-20.6 45.8-45.8 45.8H177c-25.3 0-45.8-20.6-45.8-45.8V177c0-25.3 20.6-45.8 45.8-45.8h670m0-67.2H177c-62.4 0-113 50.6-113 113v670c0 62.4 50.6 113 113 113h670c62.4 0 113-50.6 113-113V177c0-62.4-50.6-113-113-113z" fill="#A6CBDD" p-id="7819"></path><path d="M239.6 638.5v-253c0-18.6 15-33.6 33.6-33.6s33.6 15 33.6 33.6v253c0 18.6-15 33.6-33.6 33.6s-33.6-15-33.6-33.6zM717.2 638.5v-253c0-18.6 15-33.6 33.6-33.6s33.6 15 33.6 33.6v253c0 18.6-15 33.6-33.6 33.6s-33.6-15-33.6-33.6z" fill="#60A9D1" p-id="7820"></path><path d="M651 351.9h99.8c18.6 0 33.6 15 33.6 33.6s-15 33.6-33.6 33.6H651c-18.6 0-33.6-15-33.6-33.6s15-33.6 33.6-33.6zM651 478.4h99.8c18.6 0 33.6 15 33.6 33.6s-15 33.6-33.6 33.6H651c-18.6 0-33.6-15-33.6-33.6s15-33.6 33.6-33.6zM651 604.9h99.8c18.6 0 33.6 15 33.6 33.6s-15 33.6-33.6 33.6H651c-18.6 0-33.6-15-33.6-33.6s15-33.6 33.6-33.6z" fill="#60A9D1" p-id="7821"></path><path d="M419.2 351.9H519c18.6 0 33.6 15 33.6 33.6s-15 33.6-33.6 33.6h-99.8c-18.6 0-33.6-15-33.6-33.6s15-33.6 33.6-33.6zM419.2 478.4H519c18.6 0 33.6 15 33.6 33.6s-15 33.6-33.6 33.6h-99.8c-18.6 0-33.6-15-33.6-33.6s15-33.6 33.6-33.6zM419.2 604.9H519c18.6 0 33.6 15 33.6 33.6s-15 33.6-33.6 33.6h-99.8c-18.6 0-33.6-15-33.6-33.6s15-33.6 33.6-33.6z" fill="#60A9D1" p-id="7822"></path><path d="M552.6 385.5v122.3c0 18.6-15 33.6-33.6 33.6s-33.6-15-33.6-33.6V385.5c0-18.6 15-33.6 33.6-33.6s33.6 15 33.6 33.6zM452.8 512v122.3c0 18.6-15 33.6-33.6 33.6s-33.6-15-33.6-33.6V512c0-18.6 15-33.6 33.6-33.6 18.5 0 33.6 15 33.6 33.6z" fill="#60A9D1" p-id="7823"></path></svg>